<?xml version="1.0" encoding="iso-8859-1"?>
<!-- Generator: Adobe Illustrator 26.0.1, SVG Export Plug-In . SVG Version: 6.00 Build 0)  -->
<svg version="1.1" id="Layer_1" xmlns="http://www.w3.org/2000/svg" xmlns:xlink="http://www.w3.org/1999/xlink" x="0px" y="0px"
	 viewBox="0 0 40 22" style="enable-background:new 0 0 40 22;" xml:space="preserve">
<g>
	<g>
		<g>
			<path style="fill:#005BEA;" d="M20,20.758v-0.65c2.517,0,4.882-0.98,6.662-2.759c1.779-1.779,2.759-4.145,2.759-6.662
				s-0.98-4.882-2.759-6.662C24.883,2.245,22.517,1.265,20,1.265c-2.517,0-4.882,0.98-6.662,2.759
				c-1.779,1.779-2.759,4.145-2.759,6.662c0,0.534,0.044,1.066,0.132,1.588c0.026,0.152-0.008,0.312,0.025,0.462l-0.572,0.13
				c-0.156-0.711-0.236-1.445-0.236-2.181c0-2.69,1.048-5.219,2.95-7.121c1.902-1.902,4.431-2.95,7.121-2.95s5.219,1.048,7.121,2.95
				c1.902,1.902,2.95,4.431,2.95,7.121s-1.048,5.219-2.95,7.121C25.219,19.71,22.69,20.758,20,20.758z"/>
			<path style="fill:#005BEA;" d="M31.493,10.686c0,1.65-0.594,2.987-1.328,2.987c-0.3,0-0.577-0.224-0.799-0.601
				c-0.321-0.545,0.179-1.411,0.179-2.386c0-0.972-0.501-1.836-0.181-2.382c0.223-0.38,0.501-0.606,0.802-0.606
				C30.898,7.699,31.493,9.036,31.493,10.686z"/>
			<path style="fill:#005BEA;" d="M8.507,10.686c0,1.65,0.594,2.987,1.328,2.987c0.3,0,0.577-0.224,0.799-0.601
				c0.321-0.545-0.179-1.411-0.179-2.386c0-0.972,0.501-1.836,0.181-2.382c-0.223-0.38-0.501-0.606-0.802-0.606
				C9.102,7.699,8.507,9.036,8.507,10.686z"/>
			<ellipse style="fill:#005BEA;" cx="20" cy="20.41" rx="1.674" ry="0.975"/>
		</g>
	</g>
	<path style="fill:#005BEA;" d="M20,4.021c-3.681,0-6.666,2.984-6.666,6.666c0,2.873,1.818,5.321,4.366,6.258v-6.647h1.772v1.161
		c0.536-0.834,1.479-1.251,2.829-1.251v1.772c-0.159-0.03-0.303-0.045-0.432-0.045c-0.725,0-1.29,0.211-1.697,0.633
		c-0.407,0.422-0.611,1.03-0.611,1.824v2.945c0.145,0.009,0.292,0.016,0.439,0.016c3.681,0,6.666-2.984,6.666-6.666
		S23.682,4.021,20,4.021z"/>
</g>
</svg>
