<?xml version="1.0" encoding="iso-8859-1"?>
<!-- Generator: Adobe Illustrator 26.0.1, SVG Export Plug-In . SVG Version: 6.00 Build 0)  -->
<svg version="1.1" id="Layer_1" xmlns="http://www.w3.org/2000/svg" xmlns:xlink="http://www.w3.org/1999/xlink" x="0px" y="0px"
	 viewBox="0 0 40 22" style="enable-background:new 0 0 40 22;" xml:space="preserve">
<g>
	<g>
		<path style="fill:#005BEA;" d="M15.461,12.602l-0.643-0.928H14.78h-0.671v0.928h-0.771V9.27h1.442
			c0.295,0,0.551,0.049,0.769,0.148c0.217,0.098,0.385,0.238,0.502,0.419c0.117,0.181,0.176,0.395,0.176,0.643
			s-0.059,0.461-0.178,0.64c-0.119,0.179-0.288,0.317-0.507,0.412l0.747,1.071H15.461z M15.265,10.048
			c-0.121-0.1-0.297-0.15-0.528-0.15h-0.628v1.161h0.628c0.232,0,0.408-0.051,0.528-0.152c0.121-0.102,0.181-0.244,0.181-0.428
			C15.446,10.292,15.386,10.148,15.265,10.048z"/>
		<path style="fill:#005BEA;" d="M19.03,11.888h-1.547l-0.295,0.714h-0.79l1.485-3.332h0.762l1.49,3.332h-0.809L19.03,11.888z
			 M18.788,11.302l-0.528-1.276l-0.528,1.276H18.788z"/>
		<path style="fill:#005BEA;" d="M23.538,9.27v3.332h-0.633l-1.661-2.023v2.023h-0.762V9.27h0.638l1.656,2.023V9.27H23.538z"/>
		<path style="fill:#005BEA;" d="M25.542,11.293l-0.447,0.466v0.842h-0.766V9.27h0.766v1.556L26.57,9.27h0.857l-1.38,1.485
			l1.461,1.847h-0.9L25.542,11.293z"/>
		<path style="fill:#005BEA;" d="M32.091,11.171c0.108,0.141,0.162,0.315,0.162,0.521c0,0.292-0.113,0.516-0.34,0.673
			c-0.227,0.157-0.558,0.236-0.992,0.236h-1.723V9.27h1.628c0.406,0,0.718,0.078,0.935,0.233c0.217,0.156,0.326,0.366,0.326,0.633
			c0,0.162-0.039,0.306-0.117,0.433c-0.078,0.127-0.186,0.227-0.326,0.3C31.834,10.929,31.983,11.03,32.091,11.171z M29.963,9.85
			v0.785h0.766c0.19,0,0.335-0.033,0.433-0.1c0.098-0.067,0.148-0.165,0.148-0.295c0-0.13-0.049-0.228-0.148-0.293
			C31.064,9.883,30.92,9.85,30.73,9.85H29.963z M31.322,11.921c0.103-0.067,0.155-0.17,0.155-0.309c0-0.276-0.205-0.414-0.614-0.414
			h-0.9v0.823h0.9C31.066,12.021,31.219,11.988,31.322,11.921z"/>
		<path style="fill:#005BEA;" d="M35.049,9.417c0.217,0.098,0.385,0.238,0.502,0.419c0.117,0.181,0.176,0.395,0.176,0.643
			c0,0.244-0.059,0.458-0.176,0.64c-0.117,0.182-0.285,0.322-0.502,0.419c-0.217,0.097-0.474,0.145-0.769,0.145h-0.671v0.919h-0.771
			V9.27h1.442C34.575,9.27,34.832,9.319,35.049,9.417z M34.766,10.905c0.121-0.1,0.181-0.242,0.181-0.426
			c0-0.187-0.06-0.331-0.181-0.431c-0.121-0.1-0.297-0.15-0.528-0.15h-0.628v1.157h0.628C34.469,11.055,34.645,11.005,34.766,10.905
			z"/>
		<path style="fill:#005BEA;" d="M37.001,12.435c-0.278-0.149-0.495-0.355-0.652-0.616c-0.157-0.262-0.236-0.556-0.236-0.883
			c0-0.327,0.079-0.621,0.236-0.883c0.157-0.262,0.374-0.467,0.652-0.616c0.278-0.149,0.589-0.224,0.935-0.224
			c0.346,0,0.657,0.075,0.933,0.224c0.276,0.149,0.493,0.355,0.652,0.616c0.159,0.262,0.238,0.556,0.238,0.883
			c0,0.327-0.079,0.621-0.238,0.883c-0.159,0.262-0.376,0.467-0.652,0.616c-0.276,0.149-0.587,0.224-0.933,0.224
			C37.59,12.659,37.278,12.584,37.001,12.435z M38.469,11.866c0.159-0.09,0.283-0.217,0.374-0.378
			c0.09-0.162,0.136-0.346,0.136-0.552c0-0.206-0.045-0.39-0.136-0.552c-0.09-0.162-0.215-0.288-0.374-0.378
			c-0.159-0.09-0.336-0.136-0.533-0.136c-0.197,0-0.374,0.045-0.533,0.136c-0.159,0.09-0.283,0.217-0.374,0.378
			c-0.09,0.162-0.136,0.346-0.136,0.552c0,0.206,0.045,0.39,0.136,0.552c0.09,0.162,0.215,0.288,0.374,0.378
			c0.159,0.09,0.336,0.136,0.533,0.136C38.133,12.002,38.31,11.957,38.469,11.866z"/>
		<path style="fill:#7E7E7F;" d="M21.648,13.426c0.113,0.095,0.169,0.225,0.169,0.391c0,0.166-0.056,0.296-0.169,0.39
			c-0.113,0.094-0.268,0.141-0.467,0.141h-0.418v0.491h-0.164v-1.555h0.582C21.38,13.284,21.535,13.331,21.648,13.426z
			 M21.53,14.103c0.081-0.067,0.122-0.163,0.122-0.285c0-0.126-0.041-0.223-0.122-0.29c-0.081-0.067-0.199-0.101-0.353-0.101h-0.413
			v0.778h0.413C21.331,14.204,21.449,14.17,21.53,14.103z"/>
		<path style="fill:#7E7E7F;" d="M23.896,13.284l-0.689,1.555h-0.162l-0.689-1.555h0.178l0.595,1.351l0.6-1.351H23.896z"/>
		<path style="fill:#7E7E7F;" d="M24.889,13.426h-0.547v-0.142H25.6v0.142h-0.547v1.413h-0.164V13.426z"/>
		<path style="fill:#7E7E7F;" d="M27.333,13.284h0.164v1.413h0.871v0.142h-1.035V13.284z"/>
		<path style="fill:#7E7E7F;" d="M29.244,13.426h-0.547v-0.142h1.258v0.142h-0.547v1.413h-0.164V13.426z"/>
		<path style="fill:#7E7E7F;" d="M30.662,13.284h0.633c0.164,0,0.31,0.033,0.435,0.099c0.126,0.066,0.224,0.158,0.293,0.276
			c0.07,0.118,0.104,0.252,0.104,0.403c0,0.151-0.035,0.286-0.104,0.403c-0.07,0.118-0.167,0.21-0.293,0.276
			c-0.126,0.066-0.271,0.099-0.435,0.099h-0.633V13.284z M31.286,14.697c0.136,0,0.255-0.027,0.358-0.081
			c0.102-0.054,0.181-0.129,0.238-0.224c0.056-0.096,0.084-0.206,0.084-0.33c0-0.124-0.028-0.234-0.084-0.33
			c-0.056-0.096-0.136-0.17-0.238-0.224c-0.102-0.054-0.221-0.081-0.358-0.081h-0.46v1.271H31.286z"/>
	</g>
	<g>
		<g>
			<g>
				<path style="fill:#005BEA;" d="M6.168,16.031v-0.335c1.298,0,2.518-0.505,3.435-1.423c0.918-0.918,1.423-2.138,1.423-3.435
					S10.52,8.321,9.603,7.403C8.685,6.485,7.465,5.98,6.168,5.98c-1.298,0-2.518,0.505-3.435,1.423
					c-0.918,0.918-1.423,2.138-1.423,3.435c0,0.275,0.023,0.55,0.068,0.819c0.013,0.078-0.004,0.161,0.013,0.238l-0.295,0.067
					c-0.081-0.367-0.121-0.745-0.121-1.125c0-1.387,0.54-2.691,1.521-3.672C3.476,6.185,4.78,5.645,6.168,5.645
					s2.691,0.54,3.672,1.521c0.981,0.981,1.521,2.285,1.521,3.672s-0.54,2.691-1.521,3.672C8.859,15.491,7.555,16.031,6.168,16.031z
					"/>
				<path style="fill:#005BEA;" d="M12.094,10.838c0,0.851-0.307,1.54-0.685,1.54c-0.155,0-0.297-0.115-0.412-0.31
					c-0.166-0.281,0.092-0.728,0.092-1.23c0-0.501-0.258-0.947-0.094-1.228c0.115-0.196,0.258-0.312,0.413-0.312
					C11.787,9.298,12.094,9.988,12.094,10.838z"/>
				<path style="fill:#005BEA;" d="M0.241,10.838c0,0.851,0.307,1.54,0.685,1.54c0.155,0,0.297-0.115,0.412-0.31
					c0.166-0.281-0.092-0.728-0.092-1.23c0-0.501,0.258-0.947,0.094-1.228C1.224,9.414,1.081,9.298,0.926,9.298
					C0.548,9.298,0.241,9.988,0.241,10.838z"/>
				<ellipse style="fill:#005BEA;" cx="6.168" cy="15.852" rx="0.863" ry="0.503"/>
			</g>
		</g>
		<path style="fill:#005BEA;" d="M6.168,7.401c-1.898,0-3.437,1.539-3.437,3.437c0,1.481,0.937,2.744,2.251,3.227v-3.428h0.914
			v0.599c0.276-0.43,0.763-0.645,1.459-0.645v0.914c-0.082-0.015-0.156-0.023-0.223-0.023c-0.374,0-0.665,0.109-0.875,0.326
			c-0.21,0.218-0.315,0.531-0.315,0.94v1.519c0.075,0.005,0.15,0.008,0.227,0.008c1.898,0,3.437-1.539,3.437-3.437
			S8.066,7.401,6.168,7.401z"/>
	</g>
</g>
</svg>
